<svg width="132" height="22" viewBox="0 0 132 22" fill="none" xmlns="http://www.w3.org/2000/svg">
<path d="M0.77 22V0.64H5.12L13.07 12.28H11.18L19.1 0.64H23.45V22H17.51V10.48L18.38 10.72L14.03 16.96H10.19L5.87 10.72L6.71 10.48V22H0.77ZM26.9907 22V0.64H32.9907V22H26.9907ZM31.8507 22V17.02H43.3107V22H31.8507ZM31.8507 13.54V8.68H42.2007V13.54H31.8507ZM31.8507 5.62V0.64H43.1307V5.62H31.8507ZM46.1509 22V0.64H50.3509L52.1509 5.14V22H46.1509ZM60.8509 22L48.4609 6.43L50.3509 0.64L62.7409 16.21L60.8509 22ZM60.8509 22L59.3509 17.26V0.64H65.3509V22H60.8509ZM72.9052 22V16.9H77.8852C79.0052 16.9 79.9752 16.7 80.7952 16.3C81.6152 15.88 82.2452 15.25 82.6852 14.41C83.1252 13.57 83.3452 12.53 83.3452 11.29C83.3452 10.05 83.1152 9.02 82.6552 8.2C82.2152 7.38 81.5852 6.77 80.7652 6.37C79.9652 5.95 79.0052 5.74 77.8852 5.74H72.6052V0.64H77.8852C79.5652 0.64 81.1052 0.889999 82.5052 1.39C83.9252 1.89 85.1552 2.61 86.1952 3.55C87.2352 4.49 88.0352 5.62 88.5952 6.94C89.1752 8.24 89.4652 9.7 89.4652 11.32C89.4652 12.94 89.1752 14.41 88.5952 15.73C88.0352 17.03 87.2352 18.15 86.1952 19.09C85.1552 20.03 83.9352 20.75 82.5352 21.25C81.1352 21.75 79.6052 22 77.9452 22H72.9052ZM68.8852 22V0.64H74.8852V22H68.8852ZM91.9126 22V0.64H97.9126V22H91.9126ZM96.7726 22V17.02H108.233V22H96.7726ZM96.7726 13.54V8.68H107.123V13.54H96.7726ZM96.7726 5.62V0.64H108.053V5.62H96.7726ZM115.093 22V16.9H120.073C121.193 16.9 122.163 16.7 122.983 16.3C123.803 15.88 124.433 15.25 124.873 14.41C125.313 13.57 125.533 12.53 125.533 11.29C125.533 10.05 125.303 9.02 124.843 8.2C124.403 7.38 123.773 6.77 122.953 6.37C122.153 5.95 121.193 5.74 120.073 5.74H114.793V0.64H120.073C121.753 0.64 123.293 0.889999 124.693 1.39C126.113 1.89 127.343 2.61 128.383 3.55C129.423 4.49 130.223 5.62 130.783 6.94C131.363 8.24 131.653 9.7 131.653 11.32C131.653 12.94 131.363 14.41 130.783 15.73C130.223 17.03 129.423 18.15 128.383 19.09C127.343 20.03 126.123 20.75 124.723 21.25C123.323 21.75 121.793 22 120.133 22H115.093ZM111.073 22V0.64H117.073V22H111.073Z" fill="white"/>
</svg>
