<svg width="27" height="29" viewBox="0 0 27 29" fill="none" xmlns="http://www.w3.org/2000/svg">
<path fill-rule="evenodd" clip-rule="evenodd" d="M3.65864 20.0998C3.34116 19.8484 3.13749 19.4595 3.13749 19.0231V1.85012C3.13749 1.09206 3.75201 0.477539 4.51006 0.477539H6.50071C6.95259 0.477539 7.37552 0.699954 7.6316 1.07227L13.7992 10.0391L19.9422 1.07426C20.1981 0.700792 20.6217 0.477539 21.0744 0.477539H23.0635C23.8216 0.477539 24.4361 1.09206 24.4361 1.85012V19.0231C24.4361 19.3943 24.2888 19.7311 24.0494 19.9782L24.1403 20.0012L23.8719 20.5928L23.6492 21.4665L23.999 21.6259C24.2699 21.7493 24.5991 21.7151 25.4581 21.4741C26.0681 21.3029 26.7303 21.1676 26.9295 21.1735C27.1287 21.1795 26.8902 21.2852 26.3996 21.4084C25.3286 21.6775 24.7717 22.1884 24.9022 22.7818C24.9749 23.1118 24.9462 23.0938 24.7104 22.6615C24.4757 22.2309 24.2683 22.0998 23.352 21.8023C22.1242 21.4036 21.8494 21.443 22.7288 21.8915C23.5352 22.3028 23.9824 22.8909 23.8719 23.3942C23.7293 24.0426 24.0193 24.5131 24.865 25.006C25.7611 25.5282 25.7309 25.6315 24.8182 25.1659C23.9776 24.7372 23.9002 24.8762 24.481 25.7709C24.6927 26.0971 24.6785 26.0923 24.3643 25.7317C23.9912 25.3033 23.5005 23.9354 23.5005 23.3231C23.5005 22.787 22.3168 21.9699 22.0186 22.3001C21.9559 22.3696 21.8664 22.6315 21.8197 22.8821C21.7407 23.3062 21.778 23.3547 22.3576 23.581L22.9802 23.8244L22.3483 23.7382C21.6356 23.6408 21.5916 23.7073 22.0138 24.2439C22.4756 24.8307 22.364 25.0915 21.882 24.552C21.5143 24.1407 21.4187 24.0998 21.2168 24.2674C20.8178 24.5984 20.7739 25.3299 21.109 26.0682C21.276 26.4361 21.4141 26.9393 21.4159 27.1864C21.418 27.4648 21.5992 27.8605 21.8925 28.2269L22.3659 28.8182L21.9053 28.394L21.4449 27.9697L21.1996 28.394C21.0646 28.6273 20.9977 28.6844 21.0506 28.5209C21.3219 27.6849 21.2946 27.2625 20.9161 26.4357C20.7021 25.9685 20.5271 25.4941 20.5271 25.3813C20.5271 25.1256 20.3795 25.108 20.2224 25.3561C20.1577 25.4583 19.9701 25.8824 19.9189 26.2912L19.8257 27.0344L19.8053 26.3655C19.7897 25.8518 19.8865 25.5436 20.2224 25.0375C20.4629 24.6751 20.6257 24.3237 20.5844 24.2568C20.454 24.0459 19.94 24.4257 19.8453 24.8029C19.8044 24.8738 19.769 24.9369 19.7364 24.995C19.6609 25.1296 19.6002 25.2378 19.5191 25.3561C19.3822 25.4677 19.4661 25.2058 19.7196 24.7304C20.0114 24.1831 20.2612 23.8978 20.4754 23.8672C20.8863 23.8086 21.2103 23.0147 21.1389 22.2405C21.1212 22.0491 20.154 21.9791 19.7367 22.1392C19.6156 22.1855 19.1939 22.6261 18.7991 23.118C18.4046 23.6099 17.9462 24.0774 17.7806 24.1568C17.5152 24.284 17.5191 24.2665 17.8139 24.0089C18.2495 23.6282 18.2357 23.5415 17.7396 23.5397C17.3865 23.5385 17.4321 23.4902 18.0741 23.1855C18.5425 22.9633 18.9114 22.6609 19.0715 22.3681C19.363 21.8346 19.8462 21.6088 20.6963 21.6088C21.1849 21.6088 21.2828 21.562 21.2396 21.3487C21.1804 21.0564 21.0102 21.0527 19.7094 21.3152C18.9483 21.4689 18.7412 21.4609 18.2971 21.2608L17.7767 21.0262L18.6792 21.1107C19.1593 21.1107 19.2187 20.5227 19.1815 19.9084C18.9796 19.6694 18.8579 19.3605 18.8579 19.0231V11.0409L15.9998 15.112C15.7428 15.478 15.3236 15.6959 14.8764 15.6959H12.7C12.2512 15.6959 11.8308 15.4765 11.5741 15.1083L8.7157 11.0085V19.0231C8.7157 19.4595 8.51202 19.8484 8.19454 20.0998H8.54042C8.34738 20.5359 8.1996 20.8263 8.08664 21.0122L8.14421 21.035C8.4585 21.1596 8.77651 21.1413 9.51941 20.9558C10.8933 20.6127 11.0882 20.6713 9.98446 21.0958C8.83657 21.5373 8.27608 21.5517 7.29486 21.1651L6.54601 20.8699V21.221C6.54601 21.5404 6.62183 21.5783 7.38882 21.6418L7.45131 21.6469C7.75286 21.6717 7.94073 21.6872 8.10475 21.7579C8.37582 21.8749 8.58172 22.1429 9.12792 22.8539L9.19621 22.9427C9.5096 23.3503 9.62824 23.3951 10.4599 23.4193C11.3568 23.4455 11.3608 23.4474 10.6344 23.5026C9.68325 23.5748 9.51198 23.7501 10.097 24.0527C10.627 24.3267 10.6958 24.4407 10.2629 24.3275C9.92053 24.2381 9.0181 23.3575 8.66367 22.767C8.36841 22.2753 7.78844 22.0174 7.12121 22.0812C6.68694 22.1227 6.6251 22.1786 6.65662 22.5007C6.73318 23.2855 6.86238 23.5434 7.28906 23.764C7.53169 23.8895 7.83186 24.1884 7.95585 24.4282C8.28054 25.0561 8.23297 25.337 7.89549 24.7838C7.5754 24.2587 7.3457 24.0732 7.23584 24.2507C7.1951 24.3166 7.34808 24.6477 7.5757 24.9867C7.87393 25.4307 8.01294 25.8592 8.07285 26.5203C8.13767 27.2348 8.241 27.5265 8.54042 27.8388C8.75183 28.0594 8.92473 28.2968 8.92473 28.3663C8.92473 28.5651 8.17588 27.6678 8.02216 27.2849C7.94618 27.0957 7.88404 26.7141 7.88404 26.4372C7.88404 25.8939 7.61658 25.1763 7.41409 25.1763C7.34556 25.1763 7.28936 25.2686 7.28936 25.3813C7.28936 25.4941 7.11452 25.9682 6.90073 26.4349C6.52073 27.2648 6.49457 27.728 6.77273 28.6938C6.81599 28.8439 6.71445 28.6731 6.54719 28.3141C6.20912 27.5884 6.24346 27.0882 6.7149 25.8774C6.96451 25.2359 6.97061 25.1154 6.77644 24.651C6.6581 24.3675 6.51999 24.1358 6.46944 24.1358C6.18132 24.1358 5.81261 24.4878 5.669 24.9C5.57816 25.1603 5.468 25.3373 5.42414 25.2933C5.31085 25.1802 5.80726 23.9872 5.96753 23.9872C6.04038 23.9872 6.09999 23.9116 6.09999 23.8195C6.09999 23.708 5.88829 23.6803 5.46814 23.737L4.8363 23.8222L5.28231 23.614C5.52761 23.4996 5.81648 23.403 5.92412 23.3993C6.03993 23.3952 6.0884 23.2863 6.04276 23.1324C6.00024 22.9893 5.92293 22.6939 5.87104 22.4758C5.78511 22.1151 5.73917 22.0923 5.36185 22.2239C4.69506 22.4562 4.36992 22.9481 4.11272 24.1134C3.96226 24.7949 3.73138 25.3724 3.499 25.6484C3.05879 26.1717 2.99382 26.0608 3.42184 25.5167C3.84808 24.9751 3.64857 24.8343 2.95547 25.1878C2.08589 25.6313 2.09719 25.447 2.96855 24.9728C3.73926 24.5534 3.93892 24.2229 3.89135 23.4455C3.85507 22.8516 4.38701 22.1974 5.2441 21.7818C6.10773 21.3631 5.65577 21.3837 4.39028 21.821C3.49514 22.1302 3.31302 22.255 3.08823 22.7122C2.73989 23.4208 2.64311 23.3874 2.90388 22.6487L3.1138 22.0534L2.56268 21.8208C2.25954 21.6928 1.67705 21.4969 1.2682 21.3852C0.859361 21.2737 0.662818 21.178 0.83141 21.1727C1 21.1673 1.6659 21.3011 2.31128 21.4701C3.20137 21.7032 3.5671 21.7399 3.82608 21.622L4.16728 21.4665L3.42184 20.0998H3.65864Z" fill="white"/>
</svg>
